<?xml version="1.0" encoding="utf-8"?>
<!DOCTYPE svg PUBLIC "-//W3C//DTD SVG 20010904//EN" "http://www.w3.org/TR/2001/REC-SVG-20010904/DTD/svg10.dtd">
<svg xmlns="http://www.w3.org/2000/svg" xml:space="preserve" xmlns:xlink="http://www.w3.org/1999/xlink" width="450" height="450" viewBox="0 0 450 450">
<desc></desc>
<rect width="450" height="450" fill="#ffffff" fill-opacity="0" cx="0" cy="0" />
<defs>
<rect id="p" width="10" height="10" />
</defs>
<g fill="#000000">
<use x="20" y="20" xlink:href="#p" />
<use x="30" y="20" xlink:href="#p" />
<use x="40" y="20" xlink:href="#p" />
<use x="50" y="20" xlink:href="#p" />
<use x="60" y="20" xlink:href="#p" />
<use x="70" y="20" xlink:href="#p" />
<use x="80" y="20" xlink:href="#p" />
<use x="100" y="20" xlink:href="#p" />
<use x="110" y="20" xlink:href="#p" />
<use x="120" y="20" xlink:href="#p" />
<use x="130" y="20" xlink:href="#p" />
<use x="140" y="20" xlink:href="#p" />
<use x="180" y="20" xlink:href="#p" />
<use x="190" y="20" xlink:href="#p" />
<use x="210" y="20" xlink:href="#p" />
<use x="220" y="20" xlink:href="#p" />
<use x="250" y="20" xlink:href="#p" />
<use x="300" y="20" xlink:href="#p" />
<use x="320" y="20" xlink:href="#p" />
<use x="330" y="20" xlink:href="#p" />
<use x="340" y="20" xlink:href="#p" />
<use x="360" y="20" xlink:href="#p" />
<use x="370" y="20" xlink:href="#p" />
<use x="380" y="20" xlink:href="#p" />
<use x="390" y="20" xlink:href="#p" />
<use x="400" y="20" xlink:href="#p" />
<use x="410" y="20" xlink:href="#p" />
<use x="420" y="20" xlink:href="#p" />
<use x="20" y="30" xlink:href="#p" />
<use x="80" y="30" xlink:href="#p" />
<use x="100" y="30" xlink:href="#p" />
<use x="120" y="30" xlink:href="#p" />
<use x="170" y="30" xlink:href="#p" />
<use x="180" y="30" xlink:href="#p" />
<use x="200" y="30" xlink:href="#p" />
<use x="250" y="30" xlink:href="#p" />
<use x="270" y="30" xlink:href="#p" />
<use x="280" y="30" xlink:href="#p" />
<use x="300" y="30" xlink:href="#p" />
<use x="310" y="30" xlink:href="#p" />
<use x="360" y="30" xlink:href="#p" />
<use x="420" y="30" xlink:href="#p" />
<use x="20" y="40" xlink:href="#p" />
<use x="40" y="40" xlink:href="#p" />
<use x="50" y="40" xlink:href="#p" />
<use x="60" y="40" xlink:href="#p" />
<use x="80" y="40" xlink:href="#p" />
<use x="110" y="40" xlink:href="#p" />
<use x="130" y="40" xlink:href="#p" />
<use x="150" y="40" xlink:href="#p" />
<use x="170" y="40" xlink:href="#p" />
<use x="190" y="40" xlink:href="#p" />
<use x="250" y="40" xlink:href="#p" />
<use x="260" y="40" xlink:href="#p" />
<use x="270" y="40" xlink:href="#p" />
<use x="280" y="40" xlink:href="#p" />
<use x="320" y="40" xlink:href="#p" />
<use x="360" y="40" xlink:href="#p" />
<use x="380" y="40" xlink:href="#p" />
<use x="390" y="40" xlink:href="#p" />
<use x="400" y="40" xlink:href="#p" />
<use x="420" y="40" xlink:href="#p" />
<use x="20" y="50" xlink:href="#p" />
<use x="40" y="50" xlink:href="#p" />
<use x="50" y="50" xlink:href="#p" />
<use x="60" y="50" xlink:href="#p" />
<use x="80" y="50" xlink:href="#p" />
<use x="100" y="50" xlink:href="#p" />
<use x="110" y="50" xlink:href="#p" />
<use x="130" y="50" xlink:href="#p" />
<use x="150" y="50" xlink:href="#p" />
<use x="170" y="50" xlink:href="#p" />
<use x="180" y="50" xlink:href="#p" />
<use x="220" y="50" xlink:href="#p" />
<use x="240" y="50" xlink:href="#p" />
<use x="250" y="50" xlink:href="#p" />
<use x="270" y="50" xlink:href="#p" />
<use x="280" y="50" xlink:href="#p" />
<use x="290" y="50" xlink:href="#p" />
<use x="300" y="50" xlink:href="#p" />
<use x="310" y="50" xlink:href="#p" />
<use x="360" y="50" xlink:href="#p" />
<use x="380" y="50" xlink:href="#p" />
<use x="390" y="50" xlink:href="#p" />
<use x="400" y="50" xlink:href="#p" />
<use x="420" y="50" xlink:href="#p" />
<use x="20" y="60" xlink:href="#p" />
<use x="40" y="60" xlink:href="#p" />
<use x="50" y="60" xlink:href="#p" />
<use x="60" y="60" xlink:href="#p" />
<use x="80" y="60" xlink:href="#p" />
<use x="120" y="60" xlink:href="#p" />
<use x="130" y="60" xlink:href="#p" />
<use x="150" y="60" xlink:href="#p" />
<use x="210" y="60" xlink:href="#p" />
<use x="240" y="60" xlink:href="#p" />
<use x="270" y="60" xlink:href="#p" />
<use x="290" y="60" xlink:href="#p" />
<use x="300" y="60" xlink:href="#p" />
<use x="310" y="60" xlink:href="#p" />
<use x="330" y="60" xlink:href="#p" />
<use x="360" y="60" xlink:href="#p" />
<use x="380" y="60" xlink:href="#p" />
<use x="390" y="60" xlink:href="#p" />
<use x="400" y="60" xlink:href="#p" />
<use x="420" y="60" xlink:href="#p" />
<use x="20" y="70" xlink:href="#p" />
<use x="80" y="70" xlink:href="#p" />
<use x="110" y="70" xlink:href="#p" />
<use x="120" y="70" xlink:href="#p" />
<use x="130" y="70" xlink:href="#p" />
<use x="140" y="70" xlink:href="#p" />
<use x="150" y="70" xlink:href="#p" />
<use x="160" y="70" xlink:href="#p" />
<use x="180" y="70" xlink:href="#p" />
<use x="200" y="70" xlink:href="#p" />
<use x="210" y="70" xlink:href="#p" />
<use x="230" y="70" xlink:href="#p" />
<use x="240" y="70" xlink:href="#p" />
<use x="310" y="70" xlink:href="#p" />
<use x="320" y="70" xlink:href="#p" />
<use x="330" y="70" xlink:href="#p" />
<use x="340" y="70" xlink:href="#p" />
<use x="360" y="70" xlink:href="#p" />
<use x="420" y="70" xlink:href="#p" />
<use x="20" y="80" xlink:href="#p" />
<use x="30" y="80" xlink:href="#p" />
<use x="40" y="80" xlink:href="#p" />
<use x="50" y="80" xlink:href="#p" />
<use x="60" y="80" xlink:href="#p" />
<use x="70" y="80" xlink:href="#p" />
<use x="80" y="80" xlink:href="#p" />
<use x="100" y="80" xlink:href="#p" />
<use x="120" y="80" xlink:href="#p" />
<use x="140" y="80" xlink:href="#p" />
<use x="160" y="80" xlink:href="#p" />
<use x="180" y="80" xlink:href="#p" />
<use x="200" y="80" xlink:href="#p" />
<use x="220" y="80" xlink:href="#p" />
<use x="240" y="80" xlink:href="#p" />
<use x="260" y="80" xlink:href="#p" />
<use x="280" y="80" xlink:href="#p" />
<use x="300" y="80" xlink:href="#p" />
<use x="320" y="80" xlink:href="#p" />
<use x="340" y="80" xlink:href="#p" />
<use x="360" y="80" xlink:href="#p" />
<use x="370" y="80" xlink:href="#p" />
<use x="380" y="80" xlink:href="#p" />
<use x="390" y="80" xlink:href="#p" />
<use x="400" y="80" xlink:href="#p" />
<use x="410" y="80" xlink:href="#p" />
<use x="420" y="80" xlink:href="#p" />
<use x="100" y="90" xlink:href="#p" />
<use x="110" y="90" xlink:href="#p" />
<use x="140" y="90" xlink:href="#p" />
<use x="170" y="90" xlink:href="#p" />
<use x="180" y="90" xlink:href="#p" />
<use x="190" y="90" xlink:href="#p" />
<use x="200" y="90" xlink:href="#p" />
<use x="220" y="90" xlink:href="#p" />
<use x="240" y="90" xlink:href="#p" />
<use x="250" y="90" xlink:href="#p" />
<use x="260" y="90" xlink:href="#p" />
<use x="280" y="90" xlink:href="#p" />
<use x="290" y="90" xlink:href="#p" />
<use x="310" y="90" xlink:href="#p" />
<use x="340" y="90" xlink:href="#p" />
<use x="20" y="100" xlink:href="#p" />
<use x="40" y="100" xlink:href="#p" />
<use x="50" y="100" xlink:href="#p" />
<use x="70" y="100" xlink:href="#p" />
<use x="80" y="100" xlink:href="#p" />
<use x="90" y="100" xlink:href="#p" />
<use x="170" y="100" xlink:href="#p" />
<use x="180" y="100" xlink:href="#p" />
<use x="190" y="100" xlink:href="#p" />
<use x="200" y="100" xlink:href="#p" />
<use x="210" y="100" xlink:href="#p" />
<use x="220" y="100" xlink:href="#p" />
<use x="230" y="100" xlink:href="#p" />
<use x="250" y="100" xlink:href="#p" />
<use x="310" y="100" xlink:href="#p" />
<use x="320" y="100" xlink:href="#p" />
<use x="330" y="100" xlink:href="#p" />
<use x="340" y="100" xlink:href="#p" />
<use x="360" y="100" xlink:href="#p" />
<use x="390" y="100" xlink:href="#p" />
<use x="410" y="100" xlink:href="#p" />
<use x="420" y="100" xlink:href="#p" />
<use x="50" y="110" xlink:href="#p" />
<use x="90" y="110" xlink:href="#p" />
<use x="100" y="110" xlink:href="#p" />
<use x="130" y="110" xlink:href="#p" />
<use x="160" y="110" xlink:href="#p" />
<use x="170" y="110" xlink:href="#p" />
<use x="200" y="110" xlink:href="#p" />
<use x="210" y="110" xlink:href="#p" />
<use x="240" y="110" xlink:href="#p" />
<use x="250" y="110" xlink:href="#p" />
<use x="310" y="110" xlink:href="#p" />
<use x="320" y="110" xlink:href="#p" />
<use x="330" y="110" xlink:href="#p" />
<use x="340" y="110" xlink:href="#p" />
<use x="360" y="110" xlink:href="#p" />
<use x="370" y="110" xlink:href="#p" />
<use x="380" y="110" xlink:href="#p" />
<use x="400" y="110" xlink:href="#p" />
<use x="410" y="110" xlink:href="#p" />
<use x="420" y="110" xlink:href="#p" />
<use x="20" y="120" xlink:href="#p" />
<use x="40" y="120" xlink:href="#p" />
<use x="70" y="120" xlink:href="#p" />
<use x="80" y="120" xlink:href="#p" />
<use x="90" y="120" xlink:href="#p" />
<use x="140" y="120" xlink:href="#p" />
<use x="180" y="120" xlink:href="#p" />
<use x="220" y="120" xlink:href="#p" />
<use x="240" y="120" xlink:href="#p" />
<use x="250" y="120" xlink:href="#p" />
<use x="260" y="120" xlink:href="#p" />
<use x="300" y="120" xlink:href="#p" />
<use x="320" y="120" xlink:href="#p" />
<use x="340" y="120" xlink:href="#p" />
<use x="370" y="120" xlink:href="#p" />
<use x="380" y="120" xlink:href="#p" />
<use x="390" y="120" xlink:href="#p" />
<use x="400" y="120" xlink:href="#p" />
<use x="20" y="130" xlink:href="#p" />
<use x="70" y="130" xlink:href="#p" />
<use x="100" y="130" xlink:href="#p" />
<use x="130" y="130" xlink:href="#p" />
<use x="140" y="130" xlink:href="#p" />
<use x="150" y="130" xlink:href="#p" />
<use x="200" y="130" xlink:href="#p" />
<use x="220" y="130" xlink:href="#p" />
<use x="270" y="130" xlink:href="#p" />
<use x="290" y="130" xlink:href="#p" />
<use x="300" y="130" xlink:href="#p" />
<use x="360" y="130" xlink:href="#p" />
<use x="370" y="130" xlink:href="#p" />
<use x="380" y="130" xlink:href="#p" />
<use x="410" y="130" xlink:href="#p" />
<use x="20" y="140" xlink:href="#p" />
<use x="30" y="140" xlink:href="#p" />
<use x="40" y="140" xlink:href="#p" />
<use x="50" y="140" xlink:href="#p" />
<use x="60" y="140" xlink:href="#p" />
<use x="70" y="140" xlink:href="#p" />
<use x="80" y="140" xlink:href="#p" />
<use x="110" y="140" xlink:href="#p" />
<use x="120" y="140" xlink:href="#p" />
<use x="130" y="140" xlink:href="#p" />
<use x="140" y="140" xlink:href="#p" />
<use x="150" y="140" xlink:href="#p" />
<use x="170" y="140" xlink:href="#p" />
<use x="190" y="140" xlink:href="#p" />
<use x="200" y="140" xlink:href="#p" />
<use x="210" y="140" xlink:href="#p" />
<use x="220" y="140" xlink:href="#p" />
<use x="240" y="140" xlink:href="#p" />
<use x="260" y="140" xlink:href="#p" />
<use x="270" y="140" xlink:href="#p" />
<use x="290" y="140" xlink:href="#p" />
<use x="300" y="140" xlink:href="#p" />
<use x="310" y="140" xlink:href="#p" />
<use x="390" y="140" xlink:href="#p" />
<use x="400" y="140" xlink:href="#p" />
<use x="410" y="140" xlink:href="#p" />
<use x="20" y="150" xlink:href="#p" />
<use x="30" y="150" xlink:href="#p" />
<use x="40" y="150" xlink:href="#p" />
<use x="90" y="150" xlink:href="#p" />
<use x="120" y="150" xlink:href="#p" />
<use x="130" y="150" xlink:href="#p" />
<use x="150" y="150" xlink:href="#p" />
<use x="160" y="150" xlink:href="#p" />
<use x="170" y="150" xlink:href="#p" />
<use x="190" y="150" xlink:href="#p" />
<use x="200" y="150" xlink:href="#p" />
<use x="220" y="150" xlink:href="#p" />
<use x="230" y="150" xlink:href="#p" />
<use x="260" y="150" xlink:href="#p" />
<use x="280" y="150" xlink:href="#p" />
<use x="290" y="150" xlink:href="#p" />
<use x="300" y="150" xlink:href="#p" />
<use x="330" y="150" xlink:href="#p" />
<use x="350" y="150" xlink:href="#p" />
<use x="360" y="150" xlink:href="#p" />
<use x="390" y="150" xlink:href="#p" />
<use x="410" y="150" xlink:href="#p" />
<use x="420" y="150" xlink:href="#p" />
<use x="50" y="160" xlink:href="#p" />
<use x="60" y="160" xlink:href="#p" />
<use x="80" y="160" xlink:href="#p" />
<use x="90" y="160" xlink:href="#p" />
<use x="100" y="160" xlink:href="#p" />
<use x="110" y="160" xlink:href="#p" />
<use x="120" y="160" xlink:href="#p" />
<use x="140" y="160" xlink:href="#p" />
<use x="160" y="160" xlink:href="#p" />
<use x="170" y="160" xlink:href="#p" />
<use x="190" y="160" xlink:href="#p" />
<use x="210" y="160" xlink:href="#p" />
<use x="220" y="160" xlink:href="#p" />
<use x="280" y="160" xlink:href="#p" />
<use x="330" y="160" xlink:href="#p" />
<use x="340" y="160" xlink:href="#p" />
<use x="350" y="160" xlink:href="#p" />
<use x="370" y="160" xlink:href="#p" />
<use x="390" y="160" xlink:href="#p" />
<use x="400" y="160" xlink:href="#p" />
<use x="410" y="160" xlink:href="#p" />
<use x="420" y="160" xlink:href="#p" />
<use x="20" y="170" xlink:href="#p" />
<use x="50" y="170" xlink:href="#p" />
<use x="70" y="170" xlink:href="#p" />
<use x="90" y="170" xlink:href="#p" />
<use x="100" y="170" xlink:href="#p" />
<use x="110" y="170" xlink:href="#p" />
<use x="120" y="170" xlink:href="#p" />
<use x="150" y="170" xlink:href="#p" />
<use x="160" y="170" xlink:href="#p" />
<use x="170" y="170" xlink:href="#p" />
<use x="180" y="170" xlink:href="#p" />
<use x="230" y="170" xlink:href="#p" />
<use x="240" y="170" xlink:href="#p" />
<use x="290" y="170" xlink:href="#p" />
<use x="300" y="170" xlink:href="#p" />
<use x="340" y="170" xlink:href="#p" />
<use x="380" y="170" xlink:href="#p" />
<use x="390" y="170" xlink:href="#p" />
<use x="420" y="170" xlink:href="#p" />
<use x="20" y="180" xlink:href="#p" />
<use x="60" y="180" xlink:href="#p" />
<use x="70" y="180" xlink:href="#p" />
<use x="80" y="180" xlink:href="#p" />
<use x="100" y="180" xlink:href="#p" />
<use x="150" y="180" xlink:href="#p" />
<use x="200" y="180" xlink:href="#p" />
<use x="230" y="180" xlink:href="#p" />
<use x="240" y="180" xlink:href="#p" />
<use x="270" y="180" xlink:href="#p" />
<use x="320" y="180" xlink:href="#p" />
<use x="330" y="180" xlink:href="#p" />
<use x="350" y="180" xlink:href="#p" />
<use x="370" y="180" xlink:href="#p" />
<use x="380" y="180" xlink:href="#p" />
<use x="410" y="180" xlink:href="#p" />
<use x="420" y="180" xlink:href="#p" />
<use x="20" y="190" xlink:href="#p" />
<use x="30" y="190" xlink:href="#p" />
<use x="40" y="190" xlink:href="#p" />
<use x="60" y="190" xlink:href="#p" />
<use x="90" y="190" xlink:href="#p" />
<use x="120" y="190" xlink:href="#p" />
<use x="170" y="190" xlink:href="#p" />
<use x="220" y="190" xlink:href="#p" />
<use x="240" y="190" xlink:href="#p" />
<use x="250" y="190" xlink:href="#p" />
<use x="270" y="190" xlink:href="#p" />
<use x="290" y="190" xlink:href="#p" />
<use x="310" y="190" xlink:href="#p" />
<use x="320" y="190" xlink:href="#p" />
<use x="340" y="190" xlink:href="#p" />
<use x="350" y="190" xlink:href="#p" />
<use x="40" y="200" xlink:href="#p" />
<use x="70" y="200" xlink:href="#p" />
<use x="80" y="200" xlink:href="#p" />
<use x="90" y="200" xlink:href="#p" />
<use x="120" y="200" xlink:href="#p" />
<use x="130" y="200" xlink:href="#p" />
<use x="200" y="200" xlink:href="#p" />
<use x="220" y="200" xlink:href="#p" />
<use x="280" y="200" xlink:href="#p" />
<use x="290" y="200" xlink:href="#p" />
<use x="310" y="200" xlink:href="#p" />
<use x="340" y="200" xlink:href="#p" />
<use x="370" y="200" xlink:href="#p" />
<use x="390" y="200" xlink:href="#p" />
<use x="400" y="200" xlink:href="#p" />
<use x="30" y="210" xlink:href="#p" />
<use x="40" y="210" xlink:href="#p" />
<use x="50" y="210" xlink:href="#p" />
<use x="70" y="210" xlink:href="#p" />
<use x="90" y="210" xlink:href="#p" />
<use x="100" y="210" xlink:href="#p" />
<use x="120" y="210" xlink:href="#p" />
<use x="130" y="210" xlink:href="#p" />
<use x="140" y="210" xlink:href="#p" />
<use x="160" y="210" xlink:href="#p" />
<use x="190" y="210" xlink:href="#p" />
<use x="200" y="210" xlink:href="#p" />
<use x="220" y="210" xlink:href="#p" />
<use x="240" y="210" xlink:href="#p" />
<use x="250" y="210" xlink:href="#p" />
<use x="260" y="210" xlink:href="#p" />
<use x="280" y="210" xlink:href="#p" />
<use x="310" y="210" xlink:href="#p" />
<use x="340" y="210" xlink:href="#p" />
<use x="370" y="210" xlink:href="#p" />
<use x="390" y="210" xlink:href="#p" />
<use x="400" y="210" xlink:href="#p" />
<use x="410" y="210" xlink:href="#p" />
<use x="420" y="210" xlink:href="#p" />
<use x="20" y="220" xlink:href="#p" />
<use x="40" y="220" xlink:href="#p" />
<use x="50" y="220" xlink:href="#p" />
<use x="60" y="220" xlink:href="#p" />
<use x="80" y="220" xlink:href="#p" />
<use x="110" y="220" xlink:href="#p" />
<use x="120" y="220" xlink:href="#p" />
<use x="130" y="220" xlink:href="#p" />
<use x="140" y="220" xlink:href="#p" />
<use x="150" y="220" xlink:href="#p" />
<use x="170" y="220" xlink:href="#p" />
<use x="180" y="220" xlink:href="#p" />
<use x="210" y="220" xlink:href="#p" />
<use x="220" y="220" xlink:href="#p" />
<use x="230" y="220" xlink:href="#p" />
<use x="290" y="220" xlink:href="#p" />
<use x="310" y="220" xlink:href="#p" />
<use x="320" y="220" xlink:href="#p" />
<use x="360" y="220" xlink:href="#p" />
<use x="370" y="220" xlink:href="#p" />
<use x="380" y="220" xlink:href="#p" />
<use x="400" y="220" xlink:href="#p" />
<use x="410" y="220" xlink:href="#p" />
<use x="420" y="220" xlink:href="#p" />
<use x="20" y="230" xlink:href="#p" />
<use x="60" y="230" xlink:href="#p" />
<use x="70" y="230" xlink:href="#p" />
<use x="90" y="230" xlink:href="#p" />
<use x="100" y="230" xlink:href="#p" />
<use x="140" y="230" xlink:href="#p" />
<use x="150" y="230" xlink:href="#p" />
<use x="160" y="230" xlink:href="#p" />
<use x="180" y="230" xlink:href="#p" />
<use x="210" y="230" xlink:href="#p" />
<use x="220" y="230" xlink:href="#p" />
<use x="230" y="230" xlink:href="#p" />
<use x="240" y="230" xlink:href="#p" />
<use x="250" y="230" xlink:href="#p" />
<use x="270" y="230" xlink:href="#p" />
<use x="300" y="230" xlink:href="#p" />
<use x="310" y="230" xlink:href="#p" />
<use x="320" y="230" xlink:href="#p" />
<use x="330" y="230" xlink:href="#p" />
<use x="340" y="230" xlink:href="#p" />
<use x="350" y="230" xlink:href="#p" />
<use x="360" y="230" xlink:href="#p" />
<use x="370" y="230" xlink:href="#p" />
<use x="380" y="230" xlink:href="#p" />
<use x="390" y="230" xlink:href="#p" />
<use x="400" y="230" xlink:href="#p" />
<use x="410" y="230" xlink:href="#p" />
<use x="420" y="230" xlink:href="#p" />
<use x="40" y="240" xlink:href="#p" />
<use x="70" y="240" xlink:href="#p" />
<use x="80" y="240" xlink:href="#p" />
<use x="90" y="240" xlink:href="#p" />
<use x="100" y="240" xlink:href="#p" />
<use x="120" y="240" xlink:href="#p" />
<use x="130" y="240" xlink:href="#p" />
<use x="190" y="240" xlink:href="#p" />
<use x="200" y="240" xlink:href="#p" />
<use x="220" y="240" xlink:href="#p" />
<use x="240" y="240" xlink:href="#p" />
<use x="250" y="240" xlink:href="#p" />
<use x="270" y="240" xlink:href="#p" />
<use x="300" y="240" xlink:href="#p" />
<use x="310" y="240" xlink:href="#p" />
<use x="350" y="240" xlink:href="#p" />
<use x="370" y="240" xlink:href="#p" />
<use x="390" y="240" xlink:href="#p" />
<use x="410" y="240" xlink:href="#p" />
<use x="50" y="250" xlink:href="#p" />
<use x="60" y="250" xlink:href="#p" />
<use x="70" y="250" xlink:href="#p" />
<use x="110" y="250" xlink:href="#p" />
<use x="120" y="250" xlink:href="#p" />
<use x="130" y="250" xlink:href="#p" />
<use x="140" y="250" xlink:href="#p" />
<use x="160" y="250" xlink:href="#p" />
<use x="210" y="250" xlink:href="#p" />
<use x="220" y="250" xlink:href="#p" />
<use x="240" y="250" xlink:href="#p" />
<use x="250" y="250" xlink:href="#p" />
<use x="270" y="250" xlink:href="#p" />
<use x="280" y="250" xlink:href="#p" />
<use x="320" y="250" xlink:href="#p" />
<use x="330" y="250" xlink:href="#p" />
<use x="340" y="250" xlink:href="#p" />
<use x="360" y="250" xlink:href="#p" />
<use x="410" y="250" xlink:href="#p" />
<use x="420" y="250" xlink:href="#p" />
<use x="30" y="260" xlink:href="#p" />
<use x="40" y="260" xlink:href="#p" />
<use x="60" y="260" xlink:href="#p" />
<use x="70" y="260" xlink:href="#p" />
<use x="80" y="260" xlink:href="#p" />
<use x="90" y="260" xlink:href="#p" />
<use x="120" y="260" xlink:href="#p" />
<use x="150" y="260" xlink:href="#p" />
<use x="160" y="260" xlink:href="#p" />
<use x="170" y="260" xlink:href="#p" />
<use x="190" y="260" xlink:href="#p" />
<use x="240" y="260" xlink:href="#p" />
<use x="260" y="260" xlink:href="#p" />
<use x="270" y="260" xlink:href="#p" />
<use x="290" y="260" xlink:href="#p" />
<use x="300" y="260" xlink:href="#p" />
<use x="310" y="260" xlink:href="#p" />
<use x="330" y="260" xlink:href="#p" />
<use x="340" y="260" xlink:href="#p" />
<use x="400" y="260" xlink:href="#p" />
<use x="40" y="270" xlink:href="#p" />
<use x="70" y="270" xlink:href="#p" />
<use x="90" y="270" xlink:href="#p" />
<use x="100" y="270" xlink:href="#p" />
<use x="120" y="270" xlink:href="#p" />
<use x="130" y="270" xlink:href="#p" />
<use x="180" y="270" xlink:href="#p" />
<use x="210" y="270" xlink:href="#p" />
<use x="230" y="270" xlink:href="#p" />
<use x="260" y="270" xlink:href="#p" />
<use x="280" y="270" xlink:href="#p" />
<use x="290" y="270" xlink:href="#p" />
<use x="300" y="270" xlink:href="#p" />
<use x="330" y="270" xlink:href="#p" />
<use x="360" y="270" xlink:href="#p" />
<use x="370" y="270" xlink:href="#p" />
<use x="390" y="270" xlink:href="#p" />
<use x="400" y="270" xlink:href="#p" />
<use x="410" y="270" xlink:href="#p" />
<use x="420" y="270" xlink:href="#p" />
<use x="20" y="280" xlink:href="#p" />
<use x="50" y="280" xlink:href="#p" />
<use x="60" y="280" xlink:href="#p" />
<use x="70" y="280" xlink:href="#p" />
<use x="80" y="280" xlink:href="#p" />
<use x="100" y="280" xlink:href="#p" />
<use x="130" y="280" xlink:href="#p" />
<use x="150" y="280" xlink:href="#p" />
<use x="180" y="280" xlink:href="#p" />
<use x="190" y="280" xlink:href="#p" />
<use x="210" y="280" xlink:href="#p" />
<use x="220" y="280" xlink:href="#p" />
<use x="240" y="280" xlink:href="#p" />
<use x="260" y="280" xlink:href="#p" />
<use x="280" y="280" xlink:href="#p" />
<use x="330" y="280" xlink:href="#p" />
<use x="340" y="280" xlink:href="#p" />
<use x="360" y="280" xlink:href="#p" />
<use x="370" y="280" xlink:href="#p" />
<use x="380" y="280" xlink:href="#p" />
<use x="390" y="280" xlink:href="#p" />
<use x="410" y="280" xlink:href="#p" />
<use x="420" y="280" xlink:href="#p" />
<use x="70" y="290" xlink:href="#p" />
<use x="90" y="290" xlink:href="#p" />
<use x="100" y="290" xlink:href="#p" />
<use x="130" y="290" xlink:href="#p" />
<use x="140" y="290" xlink:href="#p" />
<use x="200" y="290" xlink:href="#p" />
<use x="210" y="290" xlink:href="#p" />
<use x="220" y="290" xlink:href="#p" />
<use x="230" y="290" xlink:href="#p" />
<use x="250" y="290" xlink:href="#p" />
<use x="290" y="290" xlink:href="#p" />
<use x="300" y="290" xlink:href="#p" />
<use x="340" y="290" xlink:href="#p" />
<use x="360" y="290" xlink:href="#p" />
<use x="370" y="290" xlink:href="#p" />
<use x="380" y="290" xlink:href="#p" />
<use x="390" y="290" xlink:href="#p" />
<use x="410" y="290" xlink:href="#p" />
<use x="30" y="300" xlink:href="#p" />
<use x="60" y="300" xlink:href="#p" />
<use x="70" y="300" xlink:href="#p" />
<use x="80" y="300" xlink:href="#p" />
<use x="90" y="300" xlink:href="#p" />
<use x="130" y="300" xlink:href="#p" />
<use x="140" y="300" xlink:href="#p" />
<use x="150" y="300" xlink:href="#p" />
<use x="160" y="300" xlink:href="#p" />
<use x="180" y="300" xlink:href="#p" />
<use x="210" y="300" xlink:href="#p" />
<use x="220" y="300" xlink:href="#p" />
<use x="230" y="300" xlink:href="#p" />
<use x="240" y="300" xlink:href="#p" />
<use x="270" y="300" xlink:href="#p" />
<use x="320" y="300" xlink:href="#p" />
<use x="340" y="300" xlink:href="#p" />
<use x="370" y="300" xlink:href="#p" />
<use x="380" y="300" xlink:href="#p" />
<use x="410" y="300" xlink:href="#p" />
<use x="30" y="310" xlink:href="#p" />
<use x="40" y="310" xlink:href="#p" />
<use x="50" y="310" xlink:href="#p" />
<use x="60" y="310" xlink:href="#p" />
<use x="90" y="310" xlink:href="#p" />
<use x="100" y="310" xlink:href="#p" />
<use x="150" y="310" xlink:href="#p" />
<use x="160" y="310" xlink:href="#p" />
<use x="170" y="310" xlink:href="#p" />
<use x="180" y="310" xlink:href="#p" />
<use x="210" y="310" xlink:href="#p" />
<use x="220" y="310" xlink:href="#p" />
<use x="250" y="310" xlink:href="#p" />
<use x="260" y="310" xlink:href="#p" />
<use x="280" y="310" xlink:href="#p" />
<use x="290" y="310" xlink:href="#p" />
<use x="340" y="310" xlink:href="#p" />
<use x="370" y="310" xlink:href="#p" />
<use x="400" y="310" xlink:href="#p" />
<use x="20" y="320" xlink:href="#p" />
<use x="50" y="320" xlink:href="#p" />
<use x="60" y="320" xlink:href="#p" />
<use x="70" y="320" xlink:href="#p" />
<use x="80" y="320" xlink:href="#p" />
<use x="90" y="320" xlink:href="#p" />
<use x="110" y="320" xlink:href="#p" />
<use x="130" y="320" xlink:href="#p" />
<use x="210" y="320" xlink:href="#p" />
<use x="230" y="320" xlink:href="#p" />
<use x="240" y="320" xlink:href="#p" />
<use x="260" y="320" xlink:href="#p" />
<use x="270" y="320" xlink:href="#p" />
<use x="280" y="320" xlink:href="#p" />
<use x="290" y="320" xlink:href="#p" />
<use x="310" y="320" xlink:href="#p" />
<use x="320" y="320" xlink:href="#p" />
<use x="340" y="320" xlink:href="#p" />
<use x="350" y="320" xlink:href="#p" />
<use x="370" y="320" xlink:href="#p" />
<use x="410" y="320" xlink:href="#p" />
<use x="70" y="330" xlink:href="#p" />
<use x="90" y="330" xlink:href="#p" />
<use x="100" y="330" xlink:href="#p" />
<use x="120" y="330" xlink:href="#p" />
<use x="140" y="330" xlink:href="#p" />
<use x="150" y="330" xlink:href="#p" />
<use x="160" y="330" xlink:href="#p" />
<use x="190" y="330" xlink:href="#p" />
<use x="200" y="330" xlink:href="#p" />
<use x="210" y="330" xlink:href="#p" />
<use x="240" y="330" xlink:href="#p" />
<use x="250" y="330" xlink:href="#p" />
<use x="290" y="330" xlink:href="#p" />
<use x="300" y="330" xlink:href="#p" />
<use x="310" y="330" xlink:href="#p" />
<use x="320" y="330" xlink:href="#p" />
<use x="330" y="330" xlink:href="#p" />
<use x="350" y="330" xlink:href="#p" />
<use x="360" y="330" xlink:href="#p" />
<use x="380" y="330" xlink:href="#p" />
<use x="390" y="330" xlink:href="#p" />
<use x="400" y="330" xlink:href="#p" />
<use x="410" y="330" xlink:href="#p" />
<use x="420" y="330" xlink:href="#p" />
<use x="30" y="340" xlink:href="#p" />
<use x="50" y="340" xlink:href="#p" />
<use x="80" y="340" xlink:href="#p" />
<use x="110" y="340" xlink:href="#p" />
<use x="120" y="340" xlink:href="#p" />
<use x="130" y="340" xlink:href="#p" />
<use x="140" y="340" xlink:href="#p" />
<use x="150" y="340" xlink:href="#p" />
<use x="160" y="340" xlink:href="#p" />
<use x="170" y="340" xlink:href="#p" />
<use x="190" y="340" xlink:href="#p" />
<use x="200" y="340" xlink:href="#p" />
<use x="230" y="340" xlink:href="#p" />
<use x="240" y="340" xlink:href="#p" />
<use x="280" y="340" xlink:href="#p" />
<use x="300" y="340" xlink:href="#p" />
<use x="310" y="340" xlink:href="#p" />
<use x="320" y="340" xlink:href="#p" />
<use x="340" y="340" xlink:href="#p" />
<use x="350" y="340" xlink:href="#p" />
<use x="360" y="340" xlink:href="#p" />
<use x="370" y="340" xlink:href="#p" />
<use x="380" y="340" xlink:href="#p" />
<use x="390" y="340" xlink:href="#p" />
<use x="400" y="340" xlink:href="#p" />
<use x="410" y="340" xlink:href="#p" />
<use x="100" y="350" xlink:href="#p" />
<use x="130" y="350" xlink:href="#p" />
<use x="140" y="350" xlink:href="#p" />
<use x="150" y="350" xlink:href="#p" />
<use x="160" y="350" xlink:href="#p" />
<use x="190" y="350" xlink:href="#p" />
<use x="210" y="350" xlink:href="#p" />
<use x="220" y="350" xlink:href="#p" />
<use x="230" y="350" xlink:href="#p" />
<use x="250" y="350" xlink:href="#p" />
<use x="270" y="350" xlink:href="#p" />
<use x="280" y="350" xlink:href="#p" />
<use x="300" y="350" xlink:href="#p" />
<use x="310" y="350" xlink:href="#p" />
<use x="340" y="350" xlink:href="#p" />
<use x="380" y="350" xlink:href="#p" />
<use x="390" y="350" xlink:href="#p" />
<use x="420" y="350" xlink:href="#p" />
<use x="20" y="360" xlink:href="#p" />
<use x="30" y="360" xlink:href="#p" />
<use x="40" y="360" xlink:href="#p" />
<use x="50" y="360" xlink:href="#p" />
<use x="60" y="360" xlink:href="#p" />
<use x="70" y="360" xlink:href="#p" />
<use x="80" y="360" xlink:href="#p" />
<use x="100" y="360" xlink:href="#p" />
<use x="110" y="360" xlink:href="#p" />
<use x="170" y="360" xlink:href="#p" />
<use x="180" y="360" xlink:href="#p" />
<use x="200" y="360" xlink:href="#p" />
<use x="240" y="360" xlink:href="#p" />
<use x="250" y="360" xlink:href="#p" />
<use x="270" y="360" xlink:href="#p" />
<use x="310" y="360" xlink:href="#p" />
<use x="330" y="360" xlink:href="#p" />
<use x="340" y="360" xlink:href="#p" />
<use x="360" y="360" xlink:href="#p" />
<use x="380" y="360" xlink:href="#p" />
<use x="390" y="360" xlink:href="#p" />
<use x="410" y="360" xlink:href="#p" />
<use x="20" y="370" xlink:href="#p" />
<use x="80" y="370" xlink:href="#p" />
<use x="100" y="370" xlink:href="#p" />
<use x="110" y="370" xlink:href="#p" />
<use x="130" y="370" xlink:href="#p" />
<use x="140" y="370" xlink:href="#p" />
<use x="150" y="370" xlink:href="#p" />
<use x="160" y="370" xlink:href="#p" />
<use x="170" y="370" xlink:href="#p" />
<use x="180" y="370" xlink:href="#p" />
<use x="190" y="370" xlink:href="#p" />
<use x="220" y="370" xlink:href="#p" />
<use x="240" y="370" xlink:href="#p" />
<use x="270" y="370" xlink:href="#p" />
<use x="320" y="370" xlink:href="#p" />
<use x="340" y="370" xlink:href="#p" />
<use x="380" y="370" xlink:href="#p" />
<use x="410" y="370" xlink:href="#p" />
<use x="20" y="380" xlink:href="#p" />
<use x="40" y="380" xlink:href="#p" />
<use x="50" y="380" xlink:href="#p" />
<use x="60" y="380" xlink:href="#p" />
<use x="80" y="380" xlink:href="#p" />
<use x="120" y="380" xlink:href="#p" />
<use x="140" y="380" xlink:href="#p" />
<use x="150" y="380" xlink:href="#p" />
<use x="160" y="380" xlink:href="#p" />
<use x="170" y="380" xlink:href="#p" />
<use x="180" y="380" xlink:href="#p" />
<use x="210" y="380" xlink:href="#p" />
<use x="220" y="380" xlink:href="#p" />
<use x="230" y="380" xlink:href="#p" />
<use x="250" y="380" xlink:href="#p" />
<use x="270" y="380" xlink:href="#p" />
<use x="280" y="380" xlink:href="#p" />
<use x="290" y="380" xlink:href="#p" />
<use x="310" y="380" xlink:href="#p" />
<use x="340" y="380" xlink:href="#p" />
<use x="350" y="380" xlink:href="#p" />
<use x="360" y="380" xlink:href="#p" />
<use x="370" y="380" xlink:href="#p" />
<use x="380" y="380" xlink:href="#p" />
<use x="390" y="380" xlink:href="#p" />
<use x="400" y="380" xlink:href="#p" />
<use x="420" y="380" xlink:href="#p" />
<use x="20" y="390" xlink:href="#p" />
<use x="40" y="390" xlink:href="#p" />
<use x="50" y="390" xlink:href="#p" />
<use x="60" y="390" xlink:href="#p" />
<use x="80" y="390" xlink:href="#p" />
<use x="100" y="390" xlink:href="#p" />
<use x="110" y="390" xlink:href="#p" />
<use x="120" y="390" xlink:href="#p" />
<use x="140" y="390" xlink:href="#p" />
<use x="150" y="390" xlink:href="#p" />
<use x="160" y="390" xlink:href="#p" />
<use x="180" y="390" xlink:href="#p" />
<use x="210" y="390" xlink:href="#p" />
<use x="230" y="390" xlink:href="#p" />
<use x="260" y="390" xlink:href="#p" />
<use x="270" y="390" xlink:href="#p" />
<use x="290" y="390" xlink:href="#p" />
<use x="300" y="390" xlink:href="#p" />
<use x="310" y="390" xlink:href="#p" />
<use x="340" y="390" xlink:href="#p" />
<use x="350" y="390" xlink:href="#p" />
<use x="380" y="390" xlink:href="#p" />
<use x="400" y="390" xlink:href="#p" />
<use x="420" y="390" xlink:href="#p" />
<use x="20" y="400" xlink:href="#p" />
<use x="40" y="400" xlink:href="#p" />
<use x="50" y="400" xlink:href="#p" />
<use x="60" y="400" xlink:href="#p" />
<use x="80" y="400" xlink:href="#p" />
<use x="100" y="400" xlink:href="#p" />
<use x="110" y="400" xlink:href="#p" />
<use x="120" y="400" xlink:href="#p" />
<use x="140" y="400" xlink:href="#p" />
<use x="150" y="400" xlink:href="#p" />
<use x="160" y="400" xlink:href="#p" />
<use x="170" y="400" xlink:href="#p" />
<use x="200" y="400" xlink:href="#p" />
<use x="210" y="400" xlink:href="#p" />
<use x="240" y="400" xlink:href="#p" />
<use x="260" y="400" xlink:href="#p" />
<use x="280" y="400" xlink:href="#p" />
<use x="300" y="400" xlink:href="#p" />
<use x="310" y="400" xlink:href="#p" />
<use x="330" y="400" xlink:href="#p" />
<use x="340" y="400" xlink:href="#p" />
<use x="370" y="400" xlink:href="#p" />
<use x="410" y="400" xlink:href="#p" />
<use x="420" y="400" xlink:href="#p" />
<use x="20" y="410" xlink:href="#p" />
<use x="80" y="410" xlink:href="#p" />
<use x="130" y="410" xlink:href="#p" />
<use x="150" y="410" xlink:href="#p" />
<use x="180" y="410" xlink:href="#p" />
<use x="190" y="410" xlink:href="#p" />
<use x="220" y="410" xlink:href="#p" />
<use x="230" y="410" xlink:href="#p" />
<use x="240" y="410" xlink:href="#p" />
<use x="280" y="410" xlink:href="#p" />
<use x="300" y="410" xlink:href="#p" />
<use x="340" y="410" xlink:href="#p" />
<use x="360" y="410" xlink:href="#p" />
<use x="370" y="410" xlink:href="#p" />
<use x="380" y="410" xlink:href="#p" />
<use x="390" y="410" xlink:href="#p" />
<use x="410" y="410" xlink:href="#p" />
<use x="20" y="420" xlink:href="#p" />
<use x="30" y="420" xlink:href="#p" />
<use x="40" y="420" xlink:href="#p" />
<use x="50" y="420" xlink:href="#p" />
<use x="60" y="420" xlink:href="#p" />
<use x="70" y="420" xlink:href="#p" />
<use x="80" y="420" xlink:href="#p" />
<use x="100" y="420" xlink:href="#p" />
<use x="110" y="420" xlink:href="#p" />
<use x="120" y="420" xlink:href="#p" />
<use x="130" y="420" xlink:href="#p" />
<use x="150" y="420" xlink:href="#p" />
<use x="170" y="420" xlink:href="#p" />
<use x="180" y="420" xlink:href="#p" />
<use x="220" y="420" xlink:href="#p" />
<use x="230" y="420" xlink:href="#p" />
<use x="240" y="420" xlink:href="#p" />
<use x="250" y="420" xlink:href="#p" />
<use x="260" y="420" xlink:href="#p" />
<use x="270" y="420" xlink:href="#p" />
<use x="280" y="420" xlink:href="#p" />
<use x="320" y="420" xlink:href="#p" />
<use x="330" y="420" xlink:href="#p" />
<use x="340" y="420" xlink:href="#p" />
<use x="350" y="420" xlink:href="#p" />
<use x="380" y="420" xlink:href="#p" />
<use x="390" y="420" xlink:href="#p" />
<use x="410" y="420" xlink:href="#p" />
</g>
</svg>