<?xml version="1.0" standalone="no"?>
<!DOCTYPE svg PUBLIC "-//W3C//DTD SVG 20010904//EN"
 "http://www.w3.org/TR/2001/REC-SVG-20010904/DTD/svg10.dtd">
<svg version="1.0" xmlns="http://www.w3.org/2000/svg"
 width="535.000000pt" height="535.000000pt" viewBox="0 0 535.000000 535.000000"
 preserveAspectRatio="xMidYMid meet">
<metadata>
Created by potrace 1.11, written by Peter Selinger 2001-2013
</metadata>
<g transform="translate(0.000000,535.000000) scale(0.100000,-0.100000)"
fill="#000000" stroke="none">
<path d="M0 2675 l0 -2675 2675 0 2675 0 0 2675 0 2675 -2675 0 -2675 0 0
-2675z m3358 2569 c48 -10 101 -62 221 -217 73 -94 153 -183 240 -265 72 -68
149 -149 172 -182 73 -104 229 -211 379 -261 86 -28 104 -37 116 -62 17 -32 6
-57 -27 -57 -10 0 -20 -4 -24 -10 -3 -5 47 -80 111 -167 148 -201 155 -215
152 -301 l-2 -67 78 -126 77 -126 -11 -62 -11 -62 75 -145 c44 -83 76 -158 76
-174 0 -29 -3 -33 -48 -68 l-23 -17 25 -152 c29 -173 57 -275 163 -593 70
-211 84 -273 68 -299 -3 -6 -26 -11 -51 -11 l-44 0 0 -109 c0 -224 -78 -453
-239 -707 -85 -134 -120 -174 -154 -174 -42 0 -51 22 -40 100 5 39 5 79 0 92
-7 20 -16 8 -67 -97 -71 -143 -130 -224 -265 -364 -117 -121 -215 -197 -355
-277 -117 -65 -203 -97 -420 -153 -188 -49 -223 -47 -228 11 -3 29 4 43 35 80
94 109 133 178 133 239 0 41 -20 38 -125 -22 -283 -160 -316 -170 -560 -176
-294 -8 -479 28 -755 144 -96 40 -116 53 -124 76 -17 47 7 59 145 74 148 16
191 34 274 118 l60 60 -260 6 c-273 7 -313 12 -446 62 -138 52 -293 146 -393
238 -62 56 -216 253 -216 275 0 16 48 54 69 54 9 0 55 -16 101 -34 173 -71
285 -82 440 -46 150 36 290 88 290 108 0 5 -23 14 -51 21 -94 24 -207 89 -284
162 -43 41 -75 80 -78 95 -8 44 3 63 40 70 29 5 49 -1 117 -35 62 -32 98 -44
154 -50 219 -23 374 53 518 254 55 78 53 95 -17 107 -72 13 -147 57 -226 133
-59 56 -74 77 -71 96 4 33 65 53 117 39 64 -18 180 -12 290 15 183 44 224 75
236 175 3 25 12 77 20 115 9 39 15 84 15 100 0 36 -34 94 -75 127 -89 74 -167
81 -291 25 -67 -30 -93 -37 -147 -37 -117 0 -153 19 -313 163 -147 132 -167
159 -156 216 5 24 195 236 333 371 119 117 154 193 190 422 12 73 35 176 53
229 35 105 131 288 185 350 51 61 59 122 25 191 -8 15 -16 46 -19 69 -6 44
-33 96 -62 120 -46 38 -72 181 -38 209 36 30 154 -9 286 -95 111 -72 353 -195
383 -195 34 0 41 18 56 146 16 132 47 199 104 225 46 21 51 22 94 13z m-1126
-245 c42 -21 80 -68 97 -118 52 -156 -104 -312 -260 -260 -89 30 -142 105
-142 200 0 157 161 251 305 178z m-661 -344 c101 -71 117 -210 36 -302 -77
-87 -213 -97 -295 -20 -83 77 -83 229 0 303 47 43 80 54 150 51 56 -2 74 -8
109 -32z m-540 -538 c124 -66 145 -235 40 -330 -50 -45 -100 -61 -165 -53
-103 12 -176 94 -176 199 0 121 82 206 201 207 40 0 69 -7 100 -23z m-330
-678 c221 -74 172 -403 -60 -402 -59 0 -121 24 -153 60 -25 28 -58 104 -58
137 0 54 24 111 65 151 58 59 133 78 206 54z m-2 -769 c118 -60 151 -214 69
-315 -81 -98 -230 -99 -315 -2 -115 131 -21 337 154 337 34 0 68 -7 92 -20z
m241 -720 c129 -66 148 -240 37 -337 -91 -80 -234 -61 -304 40 -37 54 -44 146
-15 203 56 110 174 149 282 94z"/>
</g>
</svg>
